<svg width="32" height="31" viewBox="0 0 32 31" fill="none" xmlns="http://www.w3.org/2000/svg">
<path d="M4.57143 0H27.4286C29.9429 0 32 1.95898 32 4.35329V26.1197C32 28.514 29.9429 30.473 27.4286 30.473H4.57143C2.05714 30.473 0 28.514 0 26.1197V4.35329C0 1.95898 2.05714 0 4.57143 0Z" fill="black"/>
<path fill-rule="evenodd" clip-rule="evenodd" d="M10.098 15.2839V24.4751C10.098 24.5699 10.2843 24.7594 10.6569 24.7594H17.9216C18.2941 24.7594 18.4804 24.6646 18.4804 24.4751V15.1892H23.6961C23.8824 15.1892 24.2549 15.0944 24.2549 14.9997L24.8137 12.157C24.8137 11.9675 24.6274 11.8728 24.2549 11.8728H18.4804V9.88294C18.4804 9.40917 19.2255 9.03015 20.3431 9.03015H24.4412C24.8137 9.03015 25 8.9354 25 8.74589V5.99801C24.6275 5.8085 24.4412 5.71375 24.0686 5.71375H17.3627C13.451 5.71375 10.098 7.22982 10.098 9.12491V11.8728H6.55882C6.18627 11.8728 6 11.9675 6 12.157V14.9997C6 15.0944 6.18627 15.2839 6.55882 15.2839H10.098Z" fill="white"/>
</svg>
