<svg width="40" height="40" viewBox="0 0 40 40" fill="none" xmlns="http://www.w3.org/2000/svg">
<path d="M7.5 2.5H32.5C35.25 2.5 37.5 4.75 37.5 7.5V32.5C37.5 35.25 35.25 37.5 32.5 37.5H7.5C4.75 37.5 2.5 35.25 2.5 32.5V7.5C2.5 4.75 4.75 2.5 7.5 2.5Z" fill="black"/>
<path d="M26.625 12.125C25.875 12.125 25.125 12.75 25.125 13.625C25.125 14.5 25.75 15.125 26.625 15.125C27.5 15.125 28.125 14.5 28.125 13.625C28 12.75 27.375 12.125 26.625 12.125Z" fill="white"/>
<path d="M20 14C16.625 14 13.875 16.75 13.875 20.125C13.875 23.5 16.625 26.25 20 26.25C23.375 26.25 26.125 23.5 26.125 20.125C26.25 16.75 23.5 14 20 14ZM20 24.125C17.875 24.125 16 22.375 16 20.125C16 18 17.75 16.125 20 16.125C22.125 16.125 24 17.875 24 20.125C24 22.375 22.25 24.125 20 24.125Z" fill="white"/>
<path d="M25 7.5H15C10.875 7.5 7.5 10.875 7.5 15V25C7.5 29.125 10.875 32.5 15 32.5H25C29.125 32.5 32.5 29.125 32.5 25V15C32.5 10.875 29.125 7.5 25 7.5ZM30.125 25C30.125 27.875 27.75 30.125 25 30.125H15C12.125 30.125 9.875 27.75 9.875 25V15C9.875 12.125 12.25 9.875 15 9.875H25C27.875 9.875 30.125 12.25 30.125 15V25Z" fill="white"/>
</svg>
