<svg width="40" height="40" viewBox="0 0 40 40" fill="none" xmlns="http://www.w3.org/2000/svg">
<g clip-path="url(#clip0_18_317)">
<path fill-rule="evenodd" clip-rule="evenodd" d="M4 0H36C38.2093 0 40 1.79072 40 4V36C40 38.2093 38.2093 40 36 40H4C1.79072 40 0 38.2093 0 36V4C0 1.79072 1.79072 0 4 0Z" fill="#010101"/>
<path fill-rule="evenodd" clip-rule="evenodd" d="M25.1167 36.8C26.3338 36.8 27.3205 35.8213 27.3205 34.6141C27.3205 33.4069 26.3338 32.428 25.1167 32.428H24.7847C26.0018 32.428 26.9885 33.4069 26.9885 34.6141C26.9885 35.8213 26.0018 36.8 24.7847 36.8H25.1167Z" fill="#EE1D51"/>
<path fill-rule="evenodd" clip-rule="evenodd" d="M24.7547 32.428H24.4227C23.2056 32.428 22.2188 33.4069 22.2188 34.6141C22.2188 35.8213 23.2056 36.8 24.4227 36.8H24.7547C23.5375 36.8 22.5507 35.8213 22.5507 34.6141C22.5507 33.4069 23.5375 32.428 24.7547 32.428Z" fill="#66C8CF"/>
<path d="M24.7696 35.6769C25.3616 35.6769 25.8414 35.201 25.8414 34.614C25.8414 34.027 25.3616 33.5511 24.7696 33.5511C24.1776 33.5511 23.6978 34.027 23.6978 34.614C23.6978 35.201 24.1776 35.6769 24.7696 35.6769Z" fill="#010101"/>
<path fill-rule="evenodd" clip-rule="evenodd" d="M8 31.4399V32.5479H9.29792V36.77H10.5963V32.5779H11.6528L12.015 31.4399H8ZM18.6264 31.4399V32.5479H19.9243V36.77H21.2227V32.5779H22.2792L22.6414 31.4399H18.6264ZM12.2568 32.0687C12.2568 31.7215 12.5402 31.4399 12.8902 31.4399C13.2406 31.4399 13.5243 31.7215 13.5243 32.0687C13.5243 32.4159 13.2408 32.6975 12.8902 32.6975C12.5402 32.6974 12.2568 32.4159 12.2568 32.0687ZM12.2568 33.1468H13.5243V36.77H12.2568V33.1468ZM14.0678 31.4399V36.77H15.3358V35.3927L15.7283 35.0331L16.9659 36.7999H18.3243L16.543 34.2247L18.143 32.6675H16.6035L15.3358 33.9251V31.4399H14.0678ZM27.743 31.4399V36.77H29.0112V35.3927L29.4035 35.0331L30.6414 36.7999H32L30.2187 34.2247L31.8187 32.6675H30.2792L29.0112 33.9251V31.4399H27.743Z" fill="white"/>
<path fill-rule="evenodd" clip-rule="evenodd" d="M25.7866 12.9897C27.5376 14.2408 29.6829 14.977 31.9997 14.977V10.5208C31.5612 10.521 31.1239 10.4752 30.6949 10.3843V13.892C28.3783 13.892 26.2333 13.1558 24.4818 11.9048V20.9984C24.4818 25.5475 20.7922 29.235 16.241 29.235C14.5429 29.235 12.9645 28.7219 11.6533 27.8419C13.1498 29.3712 15.2367 30.32 17.5455 30.32C22.097 30.32 25.7868 26.6325 25.7868 22.0832L25.7866 12.9897ZM27.3962 8.49407C26.5013 7.51695 25.9138 6.25407 25.7866 4.85791V4.28479H24.5501C24.8613 6.05919 25.9229 7.57519 27.3962 8.49407ZM14.5319 24.3512C14.032 23.696 13.7617 22.8944 13.7629 22.0702C13.7629 19.9896 15.4506 18.3027 17.5327 18.3027C17.9207 18.3024 18.3064 18.362 18.6762 18.4792V13.9235C18.2441 13.8643 17.8079 13.8392 17.3719 13.8485V17.3944C17.0019 17.2772 16.616 17.2176 16.2279 17.2179C14.1458 17.2179 12.4583 18.9048 12.4583 20.9856C12.4583 22.4568 13.3018 23.7307 14.5319 24.3512Z" fill="#EE1D52"/>
<path fill-rule="evenodd" clip-rule="evenodd" d="M24.482 11.9048C26.2335 13.1558 28.3784 13.892 30.6951 13.892V10.3843C29.402 10.1091 28.2572 9.43359 27.3964 8.49407C25.9231 7.57519 24.8615 6.05919 24.5503 4.28479H21.3024V22.083C21.2951 24.1579 19.6103 25.8379 17.5327 25.8379C16.3084 25.8379 15.2207 25.2547 14.5319 24.3512C13.3018 23.7307 12.4583 22.4568 12.4583 20.9856C12.4583 18.9048 14.1458 17.2179 16.2279 17.2179C16.6268 17.2179 17.0112 17.28 17.3719 17.3944V13.8485C12.9007 13.9408 9.30469 17.5923 9.30469 22.0832C9.30469 24.325 10.2002 26.3573 11.6535 27.8421C12.9647 28.7221 14.5431 29.2352 16.2412 29.2352C20.7924 29.2352 24.482 25.5475 24.482 20.9985V11.9048Z" fill="white"/>
<path fill-rule="evenodd" clip-rule="evenodd" d="M30.695 10.3843V9.43579C29.5289 9.43755 28.3857 9.11114 27.3963 8.49387C28.2721 9.45224 29.4254 10.1131 30.695 10.3843ZM24.5502 4.28475C24.5205 4.11519 24.4977 3.94449 24.4819 3.77307V3.19995H19.9974V20.9984C19.9902 23.0731 18.3056 24.7531 16.2278 24.7531C15.6178 24.7531 15.0419 24.6084 14.5318 24.3512C15.2206 25.2547 16.3083 25.8379 17.5326 25.8379C19.6101 25.8379 21.295 24.1579 21.3024 22.083V4.28475H24.5502ZM17.372 13.8484V12.8387C16.9973 12.7874 16.6195 12.7618 16.2413 12.762C11.6896 12.762 8 16.4497 8 20.9984C8 23.8502 9.45008 26.3635 11.6536 27.8419C10.2003 26.3571 9.3048 24.3248 9.3048 22.083C9.3048 17.5923 12.9006 13.9408 17.372 13.8484Z" fill="#69C9D0"/>
<path fill-rule="evenodd" clip-rule="evenodd" d="M24.7847 36.8C26.0018 36.8 26.9887 35.8213 26.9887 34.6141C26.9887 33.4069 26.0018 32.428 24.7847 32.428H24.7546C23.5375 32.428 22.5508 33.4069 22.5508 34.6141C22.5508 35.8213 23.5375 36.8 24.7546 36.8H24.7847ZM23.698 34.6141C23.698 34.0269 24.178 33.5512 24.77 33.5512C25.3615 33.5512 25.8415 34.0269 25.8415 34.6141C25.8415 35.2013 25.3615 35.6773 24.77 35.6773C24.178 35.6771 23.698 35.2013 23.698 34.6141Z" fill="white"/>
</g>
<defs>
<clipPath id="clip0_18_317">
<rect width="40" height="40" fill="white"/>
</clipPath>
</defs>
</svg>
