<svg width="40" height="40" viewBox="0 0 40 40" fill="none" xmlns="http://www.w3.org/2000/svg">
<path d="M20 3.75C17.1775 3.75076 14.4039 4.48646 11.9521 5.88467C9.50035 7.28288 7.4549 9.29543 6.01711 11.7242C4.57932 14.153 3.79874 16.9143 3.75221 19.7364C3.70568 22.5585 4.39479 25.344 5.75172 27.8189L4.41627 32.4931C4.29376 32.9218 4.28811 33.3755 4.39992 33.8071C4.51174 34.2387 4.73694 34.6325 5.05219 34.9478C5.36745 35.263 5.76128 35.4883 6.19287 35.6001C6.62447 35.7119 7.07811 35.7063 7.5068 35.5838L12.1812 34.2484C14.3534 35.4403 16.7694 36.1197 19.2445 36.2348C21.7196 36.3498 24.1882 35.8973 26.4616 34.9119C28.735 33.9266 30.753 32.4344 32.3613 30.5496C33.9696 28.6647 35.1256 26.437 35.7409 24.0369C36.3562 21.6368 36.4146 19.1277 35.9115 16.7016C35.4084 14.2754 34.3572 11.9964 32.8383 10.0388C31.3194 8.08122 29.373 6.49687 27.1478 5.40689C24.9227 4.31691 22.4778 3.75017 20 3.75ZM23.7695 30C23.7649 30.0037 23.7563 30 23.7498 30C21.9425 30 20.1529 29.6437 18.4834 28.9515C16.814 28.2592 15.2973 27.2447 14.0203 25.9658C12.7432 24.687 11.7308 23.1689 11.041 21.4984C10.3511 19.828 9.99737 18.0379 9.99993 16.2306C10.0056 14.7423 10.6007 13.3169 11.6549 12.2663C12.7091 11.2157 14.1366 10.6256 15.6249 10.625C16.035 10.6255 16.4378 10.7342 16.7925 10.94C17.1472 11.1458 17.4414 11.4415 17.6453 11.7973L19.472 14.9944C19.6921 15.38 19.8056 15.8173 19.8009 16.2613C19.7962 16.7053 19.6734 17.14 19.4452 17.5209L18.3341 19.3727C18.8836 20.3254 19.6746 21.1164 20.6273 21.666L22.479 20.5548C22.8599 20.3266 23.2947 20.2038 23.7387 20.1991C24.1827 20.1943 24.62 20.3078 25.0056 20.5278L28.2024 22.3546C28.5583 22.5585 28.8541 22.8527 29.0599 23.2074C29.2658 23.5621 29.3744 23.9649 29.3749 24.375C29.3743 25.8633 28.7842 27.2907 27.7337 28.3449C26.6831 29.3991 25.2577 29.9942 23.7695 30Z" fill="black"/>
<path d="M21.3204 24.1656C21.1475 24.2693 20.9521 24.3297 20.7508 24.3416C20.5496 24.3535 20.3484 24.3165 20.1646 24.2338C18.2096 23.3555 16.6446 21.7906 15.7663 19.8356C15.6836 19.6517 15.6466 19.4505 15.6585 19.2493C15.6704 19.048 15.7308 18.8526 15.8345 18.6797L17.3015 16.2346L15.5255 13.1266C14.717 13.152 13.9498 13.49 13.3855 14.0696C12.8212 14.6492 12.5038 15.4251 12.5 16.234C12.4979 17.7128 12.7874 19.1774 13.3518 20.5441C13.9162 21.9109 14.7445 23.153 15.7894 24.1993C16.8343 25.2457 18.0752 26.0758 19.4411 26.6422C20.8071 27.2085 22.2713 27.5001 23.75 27.5001H23.766C24.575 27.4963 25.3509 27.1789 25.9305 26.6146C26.5101 26.0502 26.8481 25.2831 26.8735 24.4745L23.7654 22.6986L21.3204 24.1656Z" fill="black"/>
</svg>
